<?xml version="1.0" encoding="utf-8"?>
<!-- Generator: Adobe Illustrator 16.0.0, SVG Export Plug-In . SVG Version: 6.00 Build 0)  -->
<!DOCTYPE svg PUBLIC "-//W3C//DTD SVG 1.1//EN" "http://www.w3.org/Graphics/SVG/1.1/DTD/svg11.dtd">
<svg version="1.1" id="圖層_1" xmlns="http://www.w3.org/2000/svg" xmlns:xlink="http://www.w3.org/1999/xlink" x="0px" y="0px"
	 width="32px" height="32px" viewBox="0 0 32 32" enable-background="new 0 0 32 32" xml:space="preserve">
<circle fill="#102B05" cx="16" cy="16" r="16"/>
<circle fill="none" stroke="#EFEEE7" stroke-width="0.1" stroke-miterlimit="10" cx="16" cy="16" r="15.313"/>
<circle fill="none" stroke="#EFEEE7" stroke-width="0.1" stroke-miterlimit="10" cx="16" cy="16" r="14.875"/>
<g>
	<path fill="#EFEEE7" d="M12.532,12.412c0,1.404-0.946,2.225-2.273,2.225H8.137v-4.448h2.123
		C11.586,10.188,12.532,11.104,12.532,12.412z M12.368,12.406c0-0.813-1.182-1.106-2.108-1.106H8.321v2.225h1.938
		C11.142,13.524,12.368,13.232,12.368,12.406z"/>
</g>
<g>
	<path fill="#EFEEE7" d="M12.532,19.732c0,1.404-0.946,2.224-2.273,2.224H8.137v-4.447h2.123
		C11.586,17.509,12.532,18.423,12.532,19.732z M12.368,19.726c0-0.813-1.182-1.105-2.108-1.105H8.321v2.224h1.938
		C11.142,20.844,12.368,20.551,12.368,19.726z"/>
</g>
<g>
	<path fill="#EFEEE7" d="M17.64,14.637h-4.055v-4.448h4.055V11.3h-3.883v1.023h3.361v0.185h-3.361v1.016h3.883V14.637z"/>
</g>
<g>
	<path fill="#EFEEE7" d="M19.213,14.137V9.689h1.111l3.354,3.907V9.689h0.186v4.447h-1.112l-3.354-3.907v3.907H19.213z"/>
</g>
<g>
	<path fill="#EFEEE7" d="M17.826,22.311c-0.693,0-0.928-0.464-1.182-1.028c-0.077-0.166-0.159-0.344-0.26-0.516l-0.197-0.419h-2.331
		v1.867h-0.184v-4.447h0.184v0.008h2.095c1.525,0,1.705,0.43,1.705,1.715c-0.046,0.553-0.458,0.857-0.998,0.857H16.39l0.458,0.946
		c0.133,0.279,0.324,0.641,0.571,0.763c-0.031-0.063-0.051-0.135-0.051-0.21c0-0.26,0.21-0.464,0.464-0.464s0.464,0.204,0.464,0.458
		S18.073,22.311,17.826,22.311z M17.471,19.496c0-0.457-0.457-0.616-0.96-0.616h-2.655v1.282h2.802
		C17.07,20.162,17.471,19.928,17.471,19.496z"/>
</g>
<g>
	<path fill="#EFEEE7" d="M23.863,19.729c0,1.283-1.035,2.318-2.377,2.318h-0.24c-1.366,0-2.382-1.035-2.382-2.318
		c0-1.277,1.016-2.313,2.382-2.313h0.24C22.828,17.416,23.863,18.452,23.863,19.729z M23.698,19.729c0-0.661-0.978-1.2-2.16-1.2
		h-0.343c-1.188,0-2.167,0.539-2.167,1.2c0,0.666,0.979,1.208,2.167,1.208h0.343C22.721,20.938,23.698,20.396,23.698,19.729z"/>
</g>
<line fill="none" stroke="#EFEEE7" stroke-width="0.1" stroke-miterlimit="10" x1="23.665" y1="14.6" x2="8.137" y2="16.752"/>
</svg>
